<svg viewBox="0 0 520 280" preserveAspectRatio="xMidYMid slice" xmlns="http://www.w3.org/2000/svg"><defs><linearGradient id="ab" x2="0" y2="1"><stop stop-color="#493044"/><stop offset=".6" stop-color="#21151f"/><stop offset="1" stop-color="#0d0b0f"/></linearGradient><radialGradient id="ag"><stop stop-color="#b9679b" stop-opacity=".38"/><stop offset="1" stop-color="#4e2446" stop-opacity="0"/></radialGradient></defs><rect width="520" height="280" fill="url(#ab)"/><rect y="184" width="520" height="96" fill="#100c11"/><path d="M42 70h168v116H42z" fill="#261820" stroke="#5a3a4d"/><path d="M55 82h142v91H55z" fill="#34212c"/><rect x="303" y="40" width="98" height="124" fill="#171118" stroke="#634657" stroke-width="5"/><path d="M318 55h68v88h-68z" fill="#291a27"/><circle cx="352" cy="82" r="17" fill="#b8a8b8" opacity=".45"/><path d="M338 106q14-18 28 0v30h-28z" fill="#503749"/><path d="M12 278c58-105 120-73 174-154M115 280c47-74 104-69 163-155M244 280c-12-69 78-104 140-129M509 280c-31-71-77-81-131-128" fill="none" stroke="#315337" stroke-width="9" opacity=".7"/><path d="M13 278c58-105 120-73 174-154M115 280c47-74 104-69 163-155" fill="none" stroke="#75a071" stroke-width="2" opacity=".5"/><circle cx="269" cy="145" r="73" fill="url(#ag)"/><path d="M233 181q36-69 72 0q-36 35-72 0z" fill="#6a4160" opacity=".7"/></svg>